<svg version="1.0" xmlns="http://www.w3.org/2000/svg"
 width="110px" height="80px" viewBox="0 0 1877.000000 1414.000000"
 preserveAspectRatio="xMidYMid meet">

<g transform="translate(0.000000,1414.000000) scale(0.100000,-0.100000)"
fill="#007A27" stroke="none">
<path d="M17650 13417 c-19 -8 -556 -272 -1193 -587 l-1157 -574 -12 -37 c-9
-32 -8 -42 5 -63 21 -32 2 -30 682 -61 640 -30 691 -37 855 -120 173 -88 339
-257 411 -419 11 -25 103 -276 205 -558 101 -282 196 -530 209 -550 14 -21 37
-41 51 -44 70 -18 158 49 169 128 3 24 55 592 116 1263 118 1308 121 1364 80
1443 -34 66 -97 128 -159 159 -44 22 -72 28 -141 30 -55 2 -99 -2 -121 -10z"/>
<path d="M2687 11099 c-1023 -62 -1756 -556 -2027 -1367 -86 -256 -115 -477
-107 -791 6 -222 20 -330 68 -510 195 -736 795 -1261 1622 -1420 298 -58 178
-54 2147 -61 l1815 -5 78 -22 c230 -65 379 -209 428 -413 20 -86 16 -223 -9
-306 -66 -216 -244 -340 -537 -374 -60 -6 -1005 -10 -2797 -10 l-2708 0 0
-745 c0 -410 3 -745 8 -745 4 0 124 24 267 54 338 71 849 169 1865 360 932
175 1461 278 1920 372 1339 276 2391 536 3427 846 l271 81 7 84 c9 100 -8 395
-31 549 -136 926 -740 1466 -1774 1589 -74 8 -148 18 -165 22 -16 3 -849 8
-1850 12 l-1820 6 -59 23 c-208 78 -310 237 -310 482 0 248 104 406 314 482
l65 23 3033 3 3032 2 0 -1565 c0 -861 2 -1565 4 -1565 2 0 102 33 222 74 411
140 955 346 1337 507 l147 62 0 669 c0 387 4 668 9 666 5 -1 217 -190 472
-418 255 -228 474 -424 487 -434 l24 -19 87 42 c242 120 751 404 1036 581 237
146 516 332 513 341 -3 10 -2696 2490 -2808 2587 -101 87 -176 137 -276 184
-171 80 202 72 -3759 74 -1947 1 -3597 -2 -3668 -7z"/>
<path d="M14740 10293 l0 -808 176 175 c299 297 577 605 821 910 106 132 368
481 384 512 9 17 -17 18 -686 18 l-695 0 0 -807z"/>
<path d="M16355 10526 c-422 -567 -996 -1193 -1512 -1649 l-103 -90 -2 -968
-3 -967 -564 519 c-310 285 -567 519 -571 519 -4 0 -77 -47 -162 -105 -404
-271 -966 -606 -1371 -815 -48 -25 -86 -48 -84 -51 1 -3 632 -570 1402 -1259
770 -689 1436 -1286 1480 -1326 169 -153 281 -225 420 -271 68 -22 104 -27
231 -31 228 -7 364 27 517 128 198 131 322 327 390 615 l21 90 3 2535 c2 1394
2 2695 1 2891 l-3 356 -90 -121z"/>
<path d="M10260 6146 c-349 -141 -689 -266 -1105 -408 l-290 -99 -3 -804 -2
-805 855 0 855 0 0 1120 c0 616 -1 1120 -2 1119 -2 -1 -140 -56 -308 -123z"/>
<path d="M8260 5454 c-254 -81 -904 -259 -1420 -389 -1071 -269 -2134 -492
-4080 -857 l-925 -173 2220 -3 c1954 -2 2239 -1 2375 13 836 84 1450 467 1763
1100 51 103 127 291 127 315 0 12 -3 12 -60 -6z"/>
<path d="M830 2845 c-211 -58 -351 -206 -381 -402 -19 -126 16 -267 85 -345
79 -89 174 -137 456 -233 250 -85 285 -101 345 -156 58 -53 79 -110 72 -189
-14 -153 -127 -238 -333 -248 -231 -11 -395 75 -479 249 l-31 66 -90 -53 c-49
-29 -93 -55 -99 -57 -15 -6 56 -144 101 -199 82 -98 204 -173 343 -210 108
-29 314 -29 424 1 265 71 415 271 393 523 -10 109 -39 173 -115 249 -83 83
-202 143 -446 225 -93 31 -189 65 -213 75 -151 65 -215 175 -177 304 33 115
132 183 280 192 178 12 331 -73 409 -224 l21 -43 98 56 97 56 -32 59 c-70 128
-198 236 -338 286 -64 23 -95 27 -205 30 -93 2 -146 -1 -185 -12z"/>
<path d="M10659 2827 c-95 -63 -89 -199 11 -249 127 -64 263 79 190 200 -43
70 -135 93 -201 49z"/>
<path d="M14845 2831 c-99 -60 -92 -214 11 -257 65 -27 123 -13 173 40 33 35
40 117 13 165 -36 66 -133 91 -197 52z"/>
<path d="M9010 1955 l0 -875 115 0 115 0 2 652 3 652 448 -652 449 -652 94 0
94 0 0 875 0 875 -115 0 -115 0 -2 -651 -3 -651 -449 651 -449 651 -94 0 -93
0 0 -875z"/>
<path d="M2028 2647 l-97 -30 -3 -141 -3 -141 -122 -3 -123 -3 0 -104 0 -104
123 -3 122 -3 5 -410 5 -410 26 -55 c14 -30 39 -68 55 -84 68 -68 207 -102
366 -90 l88 7 0 96 0 96 -112 0 c-135 0 -169 14 -199 78 -17 39 -19 70 -19
410 l0 367 165 0 165 0 0 105 0 105 -165 0 -165 0 0 175 c0 96 -3 175 -7 174
-5 -1 -52 -15 -105 -32z"/>
<path d="M5163 2647 l-103 -31 0 -143 0 -143 -125 0 -125 0 0 -105 0 -105 124
0 125 0 3 -397 c5 -441 7 -461 71 -545 65 -85 206 -125 390 -112 l87 7 0 96 0
96 -112 0 c-124 0 -156 10 -192 58 -20 28 -21 41 -24 413 l-3 384 166 0 165 0
0 105 0 105 -165 0 -165 0 0 175 c0 96 -3 175 -7 174 -5 -1 -54 -15 -110 -32z"/>
<path d="M3033 2346 c-216 -50 -407 -239 -469 -466 -29 -103 -24 -282 9 -385
103 -315 400 -498 716 -441 119 21 200 64 289 152 l72 72 0 -99 0 -99 110 0
110 0 0 625 0 625 -110 0 -110 0 0 -106 0 -107 -40 51 c-50 63 -155 134 -240
163 -83 28 -247 35 -337 15z m340 -226 c239 -92 347 -387 229 -627 -87 -180
-308 -279 -505 -228 -207 54 -337 221 -337 434 0 210 124 380 320 437 69 20
222 12 293 -16z"/>
<path d="M7723 2346 c-115 -27 -233 -102 -306 -196 l-27 -35 0 108 0 107 -110
0 -110 0 0 -880 0 -880 110 0 110 0 0 355 0 355 73 -74 c87 -89 170 -131 296
-153 273 -48 542 89 666 340 181 367 14 805 -357 934 -91 32 -250 40 -345 19z
m309 -238 c208 -104 303 -343 223 -568 -75 -211 -307 -333 -528 -275 -83 21
-133 50 -197 111 -246 234 -154 649 167 755 45 15 81 18 159 16 93 -2 106 -5
176 -39z"/>
<path d="M11542 2345 c-178 -39 -349 -175 -428 -342 -51 -109 -59 -149 -59
-298 1 -126 3 -147 27 -213 70 -194 208 -335 391 -400 86 -31 258 -42 351 -22
112 23 246 110 314 205 l21 30 1 -121 c0 -94 -5 -137 -20 -186 -47 -154 -175
-243 -365 -255 -197 -13 -345 50 -435 184 l-15 23 -92 -52 -92 -52 22 -40 c58
-103 204 -203 357 -243 92 -24 321 -24 410 1 219 60 379 213 425 407 12 54 15
169 15 712 l0 647 -105 0 -105 0 0 -107 0 -108 -27 35 c-73 94 -187 167 -304
195 -78 18 -202 18 -287 0z m261 -200 c128 -27 253 -119 308 -226 64 -126 63
-293 -2 -421 -30 -58 -119 -150 -177 -181 -243 -132 -545 -22 -640 234 -95
256 57 536 321 594 81 18 108 18 190 0z"/>
<path d="M13075 2344 c-234 -46 -427 -239 -480 -479 -23 -104 -17 -292 13
-385 61 -187 217 -343 400 -400 269 -84 566 -17 728 163 73 82 74 76 -28 133
l-90 50 -61 -61 c-45 -45 -78 -68 -120 -84 -209 -78 -445 -20 -561 137 -34 47
-76 139 -76 167 0 13 71 15 524 15 l523 0 6 50 c3 28 2 86 -3 130 -46 406
-372 644 -775 564z m305 -213 c133 -50 216 -153 254 -313 l6 -28 -421 0 -422
0 6 35 c24 145 172 292 327 325 68 14 187 5 250 -19z"/>
<path d="M15722 2345 c-107 -23 -207 -80 -293 -165 -85 -84 -135 -167 -171
-280 -30 -98 -32 -291 -4 -385 97 -322 396 -516 713 -463 127 22 209 64 301
155 l72 72 0 -99 0 -100 105 0 105 0 0 625 0 625 -105 0 -105 0 0 -107 c-1
-98 -2 -106 -15 -88 -134 180 -367 261 -603 210z m309 -215 c262 -81 386 -391
258 -642 -33 -64 -124 -154 -191 -187 -236 -119 -528 -12 -618 226 -96 255 23
518 275 605 70 24 195 23 276 -2z"/>
<path d="M4610 2334 c-30 -8 -73 -26 -95 -39 -46 -26 -119 -102 -137 -140 -21
-46 -28 -26 -28 75 l0 100 -105 0 -105 0 0 -625 0 -625 104 0 104 0 4 373 c4
319 7 380 22 426 47 143 138 218 300 243 l76 12 0 108 0 108 -42 -1 c-24 0
-68 -7 -98 -15z"/>
<path d="M14522 2334 c-101 -27 -162 -69 -219 -151 l-38 -56 -3 102 -3 101
-104 0 -105 0 0 -625 0 -625 105 0 105 0 0 348 c0 377 8 447 54 526 32 54 96
113 150 137 23 10 74 23 114 30 l72 12 0 108 0 109 -37 -1 c-21 0 -62 -7 -91
-15z"/>
<path d="M5793 1883 c4 -491 4 -494 67 -612 65 -121 185 -201 334 -222 181
-25 339 27 444 146 22 25 42 45 46 45 3 0 6 -36 6 -80 l0 -80 105 0 105 0 0
625 0 625 -104 0 -104 0 -4 -387 c-4 -366 -5 -392 -26 -453 -32 -96 -84 -158
-166 -200 -66 -33 -74 -35 -175 -35 -96 0 -111 3 -157 27 -65 34 -107 82 -133
153 -20 53 -21 73 -21 475 l0 420 -111 0 -110 0 4 -447z"/>
<path d="M10630 1705 l0 -625 105 0 105 0 0 625 0 625 -105 0 -105 0 0 -625z"/>
<path d="M14810 1705 l0 -625 105 0 105 0 0 625 0 625 -105 0 -105 0 0 -625z"/>
</g>
</svg>